<svg xmlns="http://www.w3.org/2000/svg" xmlns:xlink="http://www.w3.org/1999/xlink" version="1.1" style="enable-background:new 0 0 37.293 37.293;" xml:space="preserve" width="37.293" height="37.293"><rect id="backgroundrect" width="100%" height="100%" x="0" y="0" fill="none" stroke="none"/>
















<g class="currentLayer" style=""><title>Layer 1</title><g id="svg_1" class="selected" fill="#dadada" fill-opacity="1">
	<path style="" d="M4.649,25.592c-0.081-0.163-0.157-0.327-0.229-0.493c-0.226-0.522-0.833-0.761-1.354-0.534   c-0.522,0.227-0.761,0.833-0.535,1.356c0.085,0.195,0.175,0.391,0.27,0.584c0.18,0.363,0.545,0.575,0.924,0.575   c0.153,0,0.309-0.035,0.456-0.107C4.692,26.72,4.901,26.103,4.649,25.592z" id="svg_2" fill="#dadada" fill-opacity="1"/>
	<path style="" d="M35.807,20.892c0-0.567-0.458-1.027-1.026-1.03c-0.019,0-0.212-0.001-0.548-0.003   c-3.504-2.616-12.134-7.742-16.551-4.854c-2.054-0.419-3.875-0.507-5.188-0.008v-4.681c0.015,0.01,0.032,0.016,0.047,0.025v2.867   c0,0.284,0.231,0.515,0.515,0.515c0.284,0,0.515-0.23,0.515-0.515v-2.919l21.381-5.624c0.367-0.097,0.586-0.472,0.489-0.838   s-0.472-0.587-0.838-0.49L16.004,8.229l13.129-6.936c0.334-0.177,0.463-0.593,0.286-0.928c-0.177-0.336-0.593-0.463-0.928-0.286   L8.48,10.651c-0.335,0.177-0.463,0.593-0.287,0.928c0.124,0.233,0.362,0.366,0.608,0.366c0.108,0,0.218-0.025,0.32-0.08   l2.341-1.237v5.002c-0.262,0.234-0.491,0.504-0.664,0.837c-0.661,0.045-1.305,0.144-1.92,0.311   c-1.837,0.498-3.294,1.532-4.348,3.069c-0.701,0.005-1.38,0.01-2.025,0.015c-0.565,0.005-1.021,0.465-1.021,1.03   c0,0.758,0.069,1.521,0.205,2.266c0.102,0.559,0.639,0.929,1.198,0.827c0.56-0.102,0.93-0.638,0.828-1.198   c-0.053-0.288-0.093-0.58-0.122-0.873c9.939-0.074,25.849-0.015,30.103,0.003c-0.376,3.952-2.935,7.337-7.001,9.227H10.415   c-1.777-0.862-3.273-2.024-4.435-3.47c-0.357-0.443-1.006-0.515-1.449-0.157c-0.443,0.356-0.513,1.005-0.157,1.448   c1.266,1.574,2.873,2.847,4.751,3.821c0,0.008,0,0.016,0,0.023c-0.016,1.407-0.03,2.624,0.846,3.511   c0.665,0.673,1.671,0.973,3.263,0.973H24.06c1.591,0,2.597-0.3,3.262-0.973c0.877-0.888,0.863-2.103,0.846-3.512   c0-0.027,0-0.057-0.001-0.085C32.966,30.263,35.807,25.9,35.807,20.892z M32.448,19.852c-0.282-0.001-0.585-0.002-0.91-0.003   c-0.832-0.314-1.774-0.688-2.815-1.105c-2.931-1.174-6.331-2.535-9.405-3.355C22.867,14.384,28.793,17.379,32.448,19.852z    M28.34,19.699c0.121,0.049,0.231,0.092,0.35,0.14c-1.672-0.005-3.599-0.01-5.668-0.014c-2.764-1.505-7.053-3.253-10.959-3.374   C14.438,14.131,23.056,17.582,28.34,19.699z M9.149,17.771c3.544-0.961,8.178,0.471,11.582,2.049   c-0.729-0.001-1.469-0.002-2.217-0.002c-2.857-1.335-7.011-2.09-9.43-1.152c-0.68,0.264-1.195,0.667-1.561,1.166   c-0.572,0.002-1.137,0.005-1.686,0.008C6.701,18.831,7.808,18.135,9.149,17.771z M15.481,19.817c-2.175,0-4.353,0.003-6.435,0.009   c0.128-0.072,0.259-0.142,0.411-0.201C10.945,19.049,13.296,19.23,15.481,19.817z M25.856,34.872   c-0.133,0.136-0.544,0.362-1.796,0.362H13.233c-1.253,0-1.664-0.227-1.797-0.362c-0.235-0.238-0.259-0.884-0.254-1.668h14.931   C26.117,33.988,26.092,34.633,25.856,34.872z" id="svg_3" fill="#dadada" fill-opacity="1"/>
</g><g id="svg_4">
</g><g id="svg_5">
</g><g id="svg_6">
</g><g id="svg_7">
</g><g id="svg_8">
</g><g id="svg_9">
</g><g id="svg_10">
</g><g id="svg_11">
</g><g id="svg_12">
</g><g id="svg_13">
</g><g id="svg_14">
</g><g id="svg_15">
</g><g id="svg_16">
</g><g id="svg_17">
</g><g id="svg_18">
</g></g></svg>