<svg xmlns="http://www.w3.org/2000/svg" xmlns:xlink="http://www.w3.org/1999/xlink" version="1.1" style="enable-background:new 0 0 511.998 511.998;" xml:space="preserve" width="511.998" height="511.998"><rect id="backgroundrect" width="100%" height="100%" x="0" y="0" fill="none" stroke="none"/>
















<g class="currentLayer" style=""><title>Layer 1</title><g id="svg_1" class="selected" fill="#dadada" fill-opacity="1">
	<g id="svg_2" fill="#dadada" fill-opacity="1">
		<path d="M478.981,234.664v-0.001c-2.25-9.679-8.219-18.492-17.14-24.976c-7.562-5.492-16.859-9.062-26.781-10.352    c-2.516-7.008-7.031-13.406-13.219-18.594L487.419,46c2.125-4.336,3.25-9.18,3.25-14c0-17.648-14.359-32-31.999-32    c-6.125,0-12.078,1.742-17.219,5.031c-4.969,3.18-8.953,7.648-11.547,12.945l-60.905,125.11    c-5.891-2.938-12.438-4.906-19.281-5.797c-2.844-7.977-8.297-15.164-15.875-20.672c-7.562-5.5-16.859-9.062-26.781-10.359    c-2.859-7.969-8.312-15.156-15.891-20.672c-9.656-7.023-22.156-10.89-35.172-10.89c-13.016,0-25.515,3.867-35.171,10.89    c-7.578,5.516-13.031,12.703-15.891,20.672c-9.922,1.297-19.219,4.859-26.781,10.359c-7.578,5.508-13.031,12.695-15.875,20.672    c-9.938,1.289-19.234,4.852-26.781,10.352c-7.578,5.508-13.031,12.695-15.891,20.671c-9.922,1.289-19.219,4.852-26.781,10.352    c-7.578,5.508-13.031,12.695-15.89,20.672c-9.922,1.289-19.219,4.859-26.781,10.352c-8.922,6.484-14.891,15.297-17.141,24.976    H0.001v42.68c0,94.844,51.578,177.623,128.218,221.857c-0.141,0.688-0.219,1.391-0.219,2.141c0,5.875,4.781,10.656,10.672,10.656    h14.859h204.937h14.859c5.891,0,10.672-4.781,10.672-10.656c0-0.75-0.078-1.453-0.219-2.141    c76.64-44.234,128.217-127.014,128.217-221.857v-42.68H478.981z M449.076,27.336c1.734-3.547,5.375-6,9.594-6    c5.89,0,10.655,4.773,10.655,10.664c0,1.672-0.391,3.258-1.078,4.664L403.029,170.64c-3.422-1.07-6.984-1.852-10.641-2.328    c-1.453-4.078-3.594-7.945-6.358-11.492L449.076,27.336z M76.704,220.992c4.062,2.953,10.437,5.758,18.374,5.758    c4.734,0,10.031-1.008,15.719-3.578c0.016-0.016,0.047-0.023,0.062-0.031c0.094-0.039,0.188-0.086,0.281-0.125v-0.008    c3.656-1.695,6.188-5.383,6.188-9.672c0-5.891-4.766-10.672-10.656-10.672c-1.609,0-3.109,0.367-4.484,0.992v-0.008    c-1.703,0.789-3.234,1.266-4.609,1.516c4.172-9.32,16.203-16.062,30.422-16.062c4.938,0,9.609,0.812,13.781,2.266    c-2-3.031-3.109-6.43-3.109-10.023c0-11.781,12.047-21.516,27.672-23.047c7.578,7.969,24.609,23.188,44.172,23.188    c1.266,0,2.547-0.07,3.844-0.203c0.031,0,0.062-0.008,0.094-0.008h0.016c5.359-0.578,9.531-5.102,9.531-10.609    c0-5.891-4.781-10.664-10.672-10.664c-0.375,0-0.766,0.023-1.141,0.062c-10.516,1.141-23.031-9.054-29.734-15.835    c3.688-9.891,16.109-17.172,30.875-17.172c4.938,0,9.609,0.812,13.781,2.266c-1.984-3.039-3.109-6.438-3.109-10.023    c0-12.852,14.327-23.273,31.999-23.273c16.312,0,29.766,8.875,31.734,20.344c-4.828,1.062-11.422,1.688-20.234,1v0.008    c-0.281-0.023-0.547-0.039-0.828-0.039c-5.891,0-10.672,4.773-10.672,10.664c0,5.609,4.344,10.203,9.844,10.625v0.008    c3.156,0.25,6.141,0.359,8.938,0.359c19.891,0,31.016-5.695,36.609-10.023c11.344,3.578,19.281,11.789,19.281,21.352    c0,3.594-1.125,6.984-3.125,10.023c4.188-1.453,8.859-2.266,13.781-2.266c16.359,0,29.844,8.922,31.766,20.445    c-6.562,2.617-10.531,2.812-10.594,2.812c0.125-0.008,0.188,0,0.188,0h-0.016c-5.893-0.004-10.674,4.77-10.674,10.66    c0,5.883,4.766,10.648,10.641,10.664h0.031c1.578,0,14.75-0.375,33.077-11.938c11.859,3.406,20.25,11.812,20.25,21.648    c0,3.586-1.125,6.984-3.109,10.016c4.172-1.445,8.844-2.266,13.781-2.266c13.422,0,24.906,6.016,29.656,14.539H55.673    C59.36,228.039,67.126,222.937,76.704,220.992z M451.373,407.372c-24.266,36.375-57.906,65.125-97.468,83.281H158.094    c-39.562-18.156-73.203-46.906-97.468-83.281c-21.75-32.623-34.828-69.842-38.328-108.717h9.703    c0,5.906,4.781,10.688,10.672,10.688s10.656-4.781,10.656-10.688h21.344c0,5.906,4.765,10.688,10.655,10.688    c5.89,0,10.672-4.781,10.672-10.688h21.328c0,5.906,4.781,10.688,10.672,10.688c5.891,0,10.672-4.781,10.672-10.688H160    c0,5.906,4.781,10.688,10.672,10.688s10.656-4.781,10.656-10.688h21.344c0,5.906,4.766,10.688,10.656,10.688    c5.89,0,10.672-4.781,10.672-10.688h21.327c0,5.906,4.781,10.688,10.672,10.688c5.891,0,10.672-4.781,10.672-10.688h21.328    c0,5.906,4.781,10.688,10.672,10.688s10.656-4.781,10.656-10.688h21.344c0,5.906,4.766,10.688,10.656,10.688    s10.672-4.782,10.672-10.688h21.328c0,5.906,4.781,10.688,10.672,10.688c5.89,0,10.671-4.781,10.671-10.688h21.328    c0,5.906,4.781,10.688,10.672,10.688s10.656-4.781,10.656-10.688h21.344c0,5.906,4.766,10.688,10.655,10.688    c5.891,0,10.672-4.781,10.672-10.688h9.703C486.2,337.53,473.122,374.749,451.373,407.372z M490.669,277.343H21.329v-21.344    h469.34V277.343z" id="svg_3" fill="#dadada" fill-opacity="1"/>
	</g>
</g><g id="svg_4">
</g><g id="svg_5">
</g><g id="svg_6">
</g><g id="svg_7">
</g><g id="svg_8">
</g><g id="svg_9">
</g><g id="svg_10">
</g><g id="svg_11">
</g><g id="svg_12">
</g><g id="svg_13">
</g><g id="svg_14">
</g><g id="svg_15">
</g><g id="svg_16">
</g><g id="svg_17">
</g><g id="svg_18">
</g></g></svg>