<svg xmlns="http://www.w3.org/2000/svg" xmlns:xlink="http://www.w3.org/1999/xlink" version="1.1" style="enable-background:new 0 0 331.2 331.2;" xml:space="preserve" width="331.2" height="331.2"><rect id="backgroundrect" width="100%" height="100%" x="0" y="0" fill="none" stroke="none"/>
















<g class="currentLayer" style=""><title>Layer 1</title><g id="svg_1" class="selected" fill="#dadada" fill-opacity="1">
	<g id="svg_2" fill="#dadada" fill-opacity="1">
		<g id="svg_3" fill="#dadada" fill-opacity="1">
			<path d="M314,193.6L276.4,156c-10-10-22.8-14.8-36-14.8c-4.4,0-9.2,0.8-13.6,2c-0.4-6.8-3.2-14-8.4-19.2l-18.8-18.8     c-3.2-3.2-8.8-3.2-12,0l-6,6l-57.6-58c4-5.6,6.4-12,6.4-18.8c0-8.8-3.2-17.6-10-24.4C113.6,3.2,104.8,0,96,0     c-8.4,0-17.2,3.2-24,9.6L71.6,10L10,71.6C3.2,78.4,0,87.2,0,96c0,8.8,3.2,17.6,10,24.4c6.8,6.8,15.6,10,24.4,10     c6.8,0,13.2-2.8,18.8-6.4l58,57.6l-6.4,6.4c-3.2,3.2-3.2,8.8,0,12l18.8,18.8c5.2,5.2,12.4,8,19.2,8.4c-1.2,4.4-2,8.8-2,13.6     c0,13.2,4.8,26,14.8,36l37.6,37.6c3.2,3.2,8.8,3.2,12,0L314,205.6C317.2,202.4,317.2,196.8,314,193.6z M46.8,108l-0.4,0.4     c-3.2,3.2-7.6,4.8-12,4.8c-4.4,0-8.8-1.6-12.4-5.2c-3.2-3.2-4.8-7.6-4.8-12c0-4.4,1.6-8.8,5.2-12.4L84,22l0.4-0.4     c3.2-3.2,7.6-4.8,12-4.8c4.4,0,8.8,1.6,12.4,5.2c3.2,3.2,5.2,8,5.2,12.4s-1.6,8.8-5.2,12.4L46.8,108z M66.4,112.8l23.2-23.2     l23.2-23.2l56.8,56.8l-46.4,46.4L66.4,112.8z M153.6,206.4c-2.4,2.4-5.6,3.6-8.8,3.6s-6.4-1.2-8.8-3.6l-12.8-12.8l6.4-6.4     l58.4-58.4l6.4-6.4l12,13.2c2.4,2.4,3.6,5.6,3.6,8.8s-1.2,6.4-3.6,8.8l-2,2l-48.8,49.2L153.6,206.4z M198.8,295.6l-31.2-31.2     c-6.4-6.4-10-15.2-10-24s3.2-17.2,10-24l49.2-49.2c6.4-6.4,15.2-10,24-10c8.4,0.4,17.2,3.6,23.6,10.4l31.2,31.2L198.8,295.6z" id="svg_4" fill="#dadada" fill-opacity="1"/>
			<circle cx="314.79998779296875" cy="244" r="10.800000190734863" id="svg_5" fill="#dadada" fill-opacity="1"/>
			<circle cx="279.20001220703125" cy="279.20001220703125" r="10.800000190734863" id="svg_6" fill="#dadada" fill-opacity="1"/>
			<circle cx="244" cy="314.79998779296875" r="10.800000190734863" id="svg_7" fill="#dadada" fill-opacity="1"/>
			<circle cx="320.3999938964844" cy="320.3999938964844" r="10.800000190734863" id="svg_8" fill="#dadada" fill-opacity="1"/>
			<circle cx="318" cy="282.3999938964844" r="10.800000190734863" id="svg_9" fill="#dadada" fill-opacity="1"/>
			<circle cx="282.3999938964844" cy="318" r="10.800000190734863" id="svg_10" fill="#dadada" fill-opacity="1"/>
		</g>
	</g>
</g><g id="svg_11">
</g><g id="svg_12">
</g><g id="svg_13">
</g><g id="svg_14">
</g><g id="svg_15">
</g><g id="svg_16">
</g><g id="svg_17">
</g><g id="svg_18">
</g><g id="svg_19">
</g><g id="svg_20">
</g><g id="svg_21">
</g><g id="svg_22">
</g><g id="svg_23">
</g><g id="svg_24">
</g><g id="svg_25">
</g></g></svg>